<mxfile host="app.diagrams.net" modified="2020-11-05T11:48:34.308Z" agent="5.0 (Windows NT 10.0; WOW64) AppleWebKit/537.36 (KHTML, like Gecko) Chrome/86.0.4240.111 Safari/537.36 OPR/72.0.3815.186 (Edition utorrent)" etag="7AH_goL1MrnUR13hMO5F" version="13.9.1" type="github">
  <diagram id="R2lEEEUBdFMjLlhIrx00" name="Page-1">
    <mxGraphModel dx="1378" dy="764" grid="1" gridSize="10" guides="1" tooltips="1" connect="1" arrows="1" fold="1" page="1" pageScale="1" pageWidth="1100" pageHeight="850" math="0" shadow="0" extFonts="Permanent Marker^https://fonts.googleapis.com/css?family=Permanent+Marker">
      <root>
        <mxCell id="0" />
        <mxCell id="1" parent="0" />
        <mxCell id="-9yy3zQm3tOOxugrZLck-14" style="edgeStyle=orthogonalEdgeStyle;rounded=0;orthogonalLoop=1;jettySize=auto;html=1;exitX=1;exitY=0.5;exitDx=0;exitDy=0;entryX=0;entryY=0.5;entryDx=0;entryDy=0;" edge="1" parent="1" source="-9yy3zQm3tOOxugrZLck-12" target="-9yy3zQm3tOOxugrZLck-13">
          <mxGeometry relative="1" as="geometry" />
        </mxCell>
        <mxCell id="-9yy3zQm3tOOxugrZLck-23" style="edgeStyle=orthogonalEdgeStyle;rounded=0;orthogonalLoop=1;jettySize=auto;html=1;exitX=0.5;exitY=1;exitDx=0;exitDy=0;entryX=0;entryY=0.5;entryDx=0;entryDy=0;" edge="1" parent="1" source="-9yy3zQm3tOOxugrZLck-12" target="-9yy3zQm3tOOxugrZLck-21">
          <mxGeometry relative="1" as="geometry" />
        </mxCell>
        <mxCell id="-9yy3zQm3tOOxugrZLck-30" style="edgeStyle=orthogonalEdgeStyle;rounded=0;orthogonalLoop=1;jettySize=auto;html=1;exitX=0.75;exitY=0;exitDx=0;exitDy=0;entryX=0.5;entryY=1;entryDx=0;entryDy=0;" edge="1" parent="1" source="-9yy3zQm3tOOxugrZLck-12" target="-9yy3zQm3tOOxugrZLck-27">
          <mxGeometry relative="1" as="geometry" />
        </mxCell>
        <mxCell id="-9yy3zQm3tOOxugrZLck-39" style="edgeStyle=orthogonalEdgeStyle;rounded=0;orthogonalLoop=1;jettySize=auto;html=1;entryX=1;entryY=0.5;entryDx=0;entryDy=0;" edge="1" parent="1" source="-9yy3zQm3tOOxugrZLck-12" target="-9yy3zQm3tOOxugrZLck-37">
          <mxGeometry relative="1" as="geometry">
            <Array as="points">
              <mxPoint x="100" y="285" />
              <mxPoint x="100" y="345" />
            </Array>
          </mxGeometry>
        </mxCell>
        <mxCell id="-9yy3zQm3tOOxugrZLck-40" style="edgeStyle=orthogonalEdgeStyle;rounded=0;orthogonalLoop=1;jettySize=auto;html=1;entryX=1;entryY=0.5;entryDx=0;entryDy=0;exitX=1;exitY=0.5;exitDx=0;exitDy=0;" edge="1" parent="1" source="-9yy3zQm3tOOxugrZLck-35" target="-9yy3zQm3tOOxugrZLck-36">
          <mxGeometry relative="1" as="geometry">
            <Array as="points">
              <mxPoint x="110" y="218" />
              <mxPoint x="110" y="285" />
            </Array>
          </mxGeometry>
        </mxCell>
        <mxCell id="-9yy3zQm3tOOxugrZLck-41" value="" style="edgeStyle=orthogonalEdgeStyle;rounded=0;orthogonalLoop=1;jettySize=auto;html=1;" edge="1" parent="1" source="-9yy3zQm3tOOxugrZLck-12" target="-9yy3zQm3tOOxugrZLck-36">
          <mxGeometry relative="1" as="geometry" />
        </mxCell>
        <mxCell id="-9yy3zQm3tOOxugrZLck-12" value="MEDICO" style="whiteSpace=wrap;html=1;aspect=fixed;" vertex="1" parent="1">
          <mxGeometry x="120" y="250" width="70" height="70" as="geometry" />
        </mxCell>
        <mxCell id="-9yy3zQm3tOOxugrZLck-16" style="edgeStyle=orthogonalEdgeStyle;rounded=0;orthogonalLoop=1;jettySize=auto;html=1;entryX=0;entryY=0.5;entryDx=0;entryDy=0;" edge="1" parent="1" source="-9yy3zQm3tOOxugrZLck-13" target="-9yy3zQm3tOOxugrZLck-15">
          <mxGeometry relative="1" as="geometry" />
        </mxCell>
        <mxCell id="-9yy3zQm3tOOxugrZLck-13" value="ATIENDE" style="rhombus;whiteSpace=wrap;html=1;" vertex="1" parent="1">
          <mxGeometry x="250" y="245" width="80" height="80" as="geometry" />
        </mxCell>
        <mxCell id="-9yy3zQm3tOOxugrZLck-15" value="CONSULTA" style="whiteSpace=wrap;html=1;aspect=fixed;" vertex="1" parent="1">
          <mxGeometry x="410" y="245" width="80" height="80" as="geometry" />
        </mxCell>
        <mxCell id="-9yy3zQm3tOOxugrZLck-19" style="edgeStyle=orthogonalEdgeStyle;rounded=0;orthogonalLoop=1;jettySize=auto;html=1;" edge="1" parent="1" source="-9yy3zQm3tOOxugrZLck-17" target="-9yy3zQm3tOOxugrZLck-18">
          <mxGeometry relative="1" as="geometry" />
        </mxCell>
        <mxCell id="-9yy3zQm3tOOxugrZLck-45" style="edgeStyle=orthogonalEdgeStyle;rounded=0;orthogonalLoop=1;jettySize=auto;html=1;exitX=1;exitY=0.5;exitDx=0;exitDy=0;entryX=0;entryY=0.5;entryDx=0;entryDy=0;" edge="1" parent="1" source="-9yy3zQm3tOOxugrZLck-17" target="-9yy3zQm3tOOxugrZLck-42">
          <mxGeometry relative="1" as="geometry">
            <Array as="points">
              <mxPoint x="860" y="285" />
              <mxPoint x="860" y="213" />
            </Array>
          </mxGeometry>
        </mxCell>
        <mxCell id="-9yy3zQm3tOOxugrZLck-46" style="edgeStyle=orthogonalEdgeStyle;rounded=0;orthogonalLoop=1;jettySize=auto;html=1;entryX=0;entryY=0.5;entryDx=0;entryDy=0;" edge="1" parent="1" source="-9yy3zQm3tOOxugrZLck-17" target="-9yy3zQm3tOOxugrZLck-44">
          <mxGeometry relative="1" as="geometry" />
        </mxCell>
        <mxCell id="-9yy3zQm3tOOxugrZLck-47" style="edgeStyle=orthogonalEdgeStyle;rounded=0;orthogonalLoop=1;jettySize=auto;html=1;" edge="1" parent="1" source="-9yy3zQm3tOOxugrZLck-17" target="-9yy3zQm3tOOxugrZLck-43">
          <mxGeometry relative="1" as="geometry" />
        </mxCell>
        <mxCell id="-9yy3zQm3tOOxugrZLck-17" value="PACIENTE" style="whiteSpace=wrap;html=1;aspect=fixed;" vertex="1" parent="1">
          <mxGeometry x="760" y="245" width="80" height="80" as="geometry" />
        </mxCell>
        <mxCell id="-9yy3zQm3tOOxugrZLck-20" style="edgeStyle=orthogonalEdgeStyle;rounded=0;orthogonalLoop=1;jettySize=auto;html=1;entryX=1;entryY=0.5;entryDx=0;entryDy=0;" edge="1" parent="1" source="-9yy3zQm3tOOxugrZLck-18" target="-9yy3zQm3tOOxugrZLck-15">
          <mxGeometry relative="1" as="geometry" />
        </mxCell>
        <mxCell id="-9yy3zQm3tOOxugrZLck-18" value="AGENDA" style="rhombus;whiteSpace=wrap;html=1;" vertex="1" parent="1">
          <mxGeometry x="600" y="245" width="80" height="80" as="geometry" />
        </mxCell>
        <mxCell id="-9yy3zQm3tOOxugrZLck-24" style="edgeStyle=orthogonalEdgeStyle;rounded=0;orthogonalLoop=1;jettySize=auto;html=1;entryX=0;entryY=0.5;entryDx=0;entryDy=0;" edge="1" parent="1" source="-9yy3zQm3tOOxugrZLck-21" target="-9yy3zQm3tOOxugrZLck-22">
          <mxGeometry relative="1" as="geometry" />
        </mxCell>
        <mxCell id="-9yy3zQm3tOOxugrZLck-21" value="ENTREGA (Y/N)" style="rhombus;whiteSpace=wrap;html=1;" vertex="1" parent="1">
          <mxGeometry x="310" y="411" width="130" height="80" as="geometry" />
        </mxCell>
        <mxCell id="-9yy3zQm3tOOxugrZLck-25" style="edgeStyle=orthogonalEdgeStyle;rounded=0;orthogonalLoop=1;jettySize=auto;html=1;" edge="1" parent="1" source="-9yy3zQm3tOOxugrZLck-22">
          <mxGeometry relative="1" as="geometry">
            <mxPoint x="800" y="330" as="targetPoint" />
          </mxGeometry>
        </mxCell>
        <mxCell id="-9yy3zQm3tOOxugrZLck-56" style="edgeStyle=orthogonalEdgeStyle;rounded=0;orthogonalLoop=1;jettySize=auto;html=1;entryX=0.286;entryY=0.125;entryDx=0;entryDy=0;entryPerimeter=0;" edge="1" parent="1" source="-9yy3zQm3tOOxugrZLck-22" target="-9yy3zQm3tOOxugrZLck-49">
          <mxGeometry relative="1" as="geometry" />
        </mxCell>
        <mxCell id="-9yy3zQm3tOOxugrZLck-57" style="edgeStyle=orthogonalEdgeStyle;rounded=0;orthogonalLoop=1;jettySize=auto;html=1;entryX=1;entryY=0;entryDx=0;entryDy=0;" edge="1" parent="1" source="-9yy3zQm3tOOxugrZLck-22" target="-9yy3zQm3tOOxugrZLck-48">
          <mxGeometry relative="1" as="geometry">
            <Array as="points">
              <mxPoint x="529" y="480" />
            </Array>
          </mxGeometry>
        </mxCell>
        <mxCell id="-9yy3zQm3tOOxugrZLck-58" style="edgeStyle=orthogonalEdgeStyle;rounded=0;orthogonalLoop=1;jettySize=auto;html=1;entryX=0;entryY=0;entryDx=0;entryDy=0;" edge="1" parent="1" source="-9yy3zQm3tOOxugrZLck-22" target="-9yy3zQm3tOOxugrZLck-51">
          <mxGeometry relative="1" as="geometry">
            <Array as="points">
              <mxPoint x="750" y="500" />
            </Array>
          </mxGeometry>
        </mxCell>
        <mxCell id="-9yy3zQm3tOOxugrZLck-59" style="edgeStyle=orthogonalEdgeStyle;rounded=0;orthogonalLoop=1;jettySize=auto;html=1;" edge="1" parent="1" source="-9yy3zQm3tOOxugrZLck-22" target="-9yy3zQm3tOOxugrZLck-50">
          <mxGeometry relative="1" as="geometry" />
        </mxCell>
        <mxCell id="-9yy3zQm3tOOxugrZLck-22" value="LICENCIA" style="whiteSpace=wrap;html=1;aspect=fixed;" vertex="1" parent="1">
          <mxGeometry x="570" y="410" width="100" height="100" as="geometry" />
        </mxCell>
        <mxCell id="-9yy3zQm3tOOxugrZLck-33" style="edgeStyle=orthogonalEdgeStyle;rounded=0;orthogonalLoop=1;jettySize=auto;html=1;exitX=1;exitY=0.5;exitDx=0;exitDy=0;" edge="1" parent="1" source="-9yy3zQm3tOOxugrZLck-27" target="-9yy3zQm3tOOxugrZLck-32">
          <mxGeometry relative="1" as="geometry" />
        </mxCell>
        <mxCell id="-9yy3zQm3tOOxugrZLck-34" style="edgeStyle=orthogonalEdgeStyle;rounded=0;orthogonalLoop=1;jettySize=auto;html=1;entryX=0;entryY=0.5;entryDx=0;entryDy=0;" edge="1" parent="1" source="-9yy3zQm3tOOxugrZLck-27" target="-9yy3zQm3tOOxugrZLck-31">
          <mxGeometry relative="1" as="geometry" />
        </mxCell>
        <mxCell id="-9yy3zQm3tOOxugrZLck-27" value="ESPECIALIDAD" style="whiteSpace=wrap;html=1;aspect=fixed;" vertex="1" parent="1">
          <mxGeometry x="220" y="40" width="90" height="90" as="geometry" />
        </mxCell>
        <mxCell id="-9yy3zQm3tOOxugrZLck-31" value="CODIGO" style="ellipse;whiteSpace=wrap;html=1;" vertex="1" parent="1">
          <mxGeometry x="370" y="10" width="80" height="60" as="geometry" />
        </mxCell>
        <mxCell id="-9yy3zQm3tOOxugrZLck-32" value="DESCRIPC" style="ellipse;whiteSpace=wrap;html=1;" vertex="1" parent="1">
          <mxGeometry x="370" y="90" width="80" height="60" as="geometry" />
        </mxCell>
        <mxCell id="-9yy3zQm3tOOxugrZLck-35" value="RUT" style="ellipse;whiteSpace=wrap;html=1;" vertex="1" parent="1">
          <mxGeometry x="10" y="195" width="80" height="45" as="geometry" />
        </mxCell>
        <mxCell id="-9yy3zQm3tOOxugrZLck-36" value="NOMBRE" style="ellipse;whiteSpace=wrap;html=1;" vertex="1" parent="1">
          <mxGeometry x="10" y="265" width="70" height="40" as="geometry" />
        </mxCell>
        <mxCell id="-9yy3zQm3tOOxugrZLck-37" value="DIRECC" style="ellipse;whiteSpace=wrap;html=1;" vertex="1" parent="1">
          <mxGeometry x="10" y="325" width="70" height="40" as="geometry" />
        </mxCell>
        <mxCell id="-9yy3zQm3tOOxugrZLck-42" value="RUT" style="ellipse;whiteSpace=wrap;html=1;" vertex="1" parent="1">
          <mxGeometry x="880" y="190" width="80" height="45" as="geometry" />
        </mxCell>
        <mxCell id="-9yy3zQm3tOOxugrZLck-43" value="NOMBRE" style="ellipse;whiteSpace=wrap;html=1;" vertex="1" parent="1">
          <mxGeometry x="880" y="260" width="70" height="40" as="geometry" />
        </mxCell>
        <mxCell id="-9yy3zQm3tOOxugrZLck-44" value="DIRECC" style="ellipse;whiteSpace=wrap;html=1;" vertex="1" parent="1">
          <mxGeometry x="880" y="320" width="70" height="40" as="geometry" />
        </mxCell>
        <mxCell id="-9yy3zQm3tOOxugrZLck-48" value="CODIGO" style="ellipse;whiteSpace=wrap;html=1;" vertex="1" parent="1">
          <mxGeometry x="460" y="510" width="80" height="45" as="geometry" />
        </mxCell>
        <mxCell id="-9yy3zQm3tOOxugrZLck-49" value="DIAGNOS" style="ellipse;whiteSpace=wrap;html=1;" vertex="1" parent="1">
          <mxGeometry x="550" y="565" width="70" height="40" as="geometry" />
        </mxCell>
        <mxCell id="-9yy3zQm3tOOxugrZLck-50" value="F. INICIO" style="ellipse;whiteSpace=wrap;html=1;" vertex="1" parent="1">
          <mxGeometry x="650" y="565" width="70" height="40" as="geometry" />
        </mxCell>
        <mxCell id="-9yy3zQm3tOOxugrZLck-51" value="F. TERMINO" style="ellipse;whiteSpace=wrap;html=1;" vertex="1" parent="1">
          <mxGeometry x="740" y="525" width="70" height="40" as="geometry" />
        </mxCell>
      </root>
    </mxGraphModel>
  </diagram>
</mxfile>
